<svg width="26" height="27" viewBox="0 0 26 27" fill="none" xmlns="http://www.w3.org/2000/svg">
<path d="M0 0.9C0 0.661305 0.0913121 0.432387 0.253849 0.263604C0.416385 0.0948211 0.636832 0 0.866693 0H3.46677C3.6601 5.54607e-05 3.84786 0.0672312 4.00019 0.190845C4.15252 0.314458 4.26068 0.487411 4.30747 0.6822L5.00949 3.6H25.1341C25.2614 3.60012 25.387 3.62934 25.5022 3.68559C25.6174 3.74184 25.7192 3.82373 25.8004 3.92545C25.8817 4.02716 25.9403 4.14621 25.9723 4.27413C26.0042 4.40205 26.0086 4.53571 25.9852 4.6656L23.3851 19.0656C23.3479 19.2718 23.2425 19.4581 23.0871 19.5922C22.9317 19.7263 22.7361 19.7998 22.534 19.8H6.93355C6.73149 19.7998 6.53585 19.7263 6.38044 19.5922C6.22504 19.4581 6.11963 19.2718 6.08245 19.0656L3.48411 4.6926L2.79075 1.8H0.866693C0.636832 1.8 0.416385 1.70518 0.253849 1.5364C0.0913121 1.36761 0 1.13869 0 0.9ZM5.37697 5.4L7.6529 18H21.8147L24.0906 5.4H5.37697ZM8.66693 19.8C7.74749 19.8 6.8657 20.1793 6.21556 20.8544C5.56541 21.5295 5.20016 22.4452 5.20016 23.4C5.20016 24.3548 5.56541 25.2705 6.21556 25.9456C6.8657 26.6207 7.74749 27 8.66693 27C9.58638 27 10.4682 26.6207 11.1183 25.9456C11.7685 25.2705 12.1337 24.3548 12.1337 23.4C12.1337 22.4452 11.7685 21.5295 11.1183 20.8544C10.4682 20.1793 9.58638 19.8 8.66693 19.8ZM20.8006 19.8C19.8812 19.8 18.9994 20.1793 18.3493 20.8544C17.6991 21.5295 17.3339 22.4452 17.3339 23.4C17.3339 24.3548 17.6991 25.2705 18.3493 25.9456C18.9994 26.6207 19.8812 27 20.8006 27C21.7201 27 22.6019 26.6207 23.252 25.9456C23.9022 25.2705 24.2674 24.3548 24.2674 23.4C24.2674 22.4452 23.9022 21.5295 23.252 20.8544C22.6019 20.1793 21.7201 19.8 20.8006 19.8ZM8.66693 21.6C9.12666 21.6 9.56755 21.7896 9.89262 22.1272C10.2177 22.4648 10.4003 22.9226 10.4003 23.4C10.4003 23.8774 10.2177 24.3352 9.89262 24.6728C9.56755 25.0104 9.12666 25.2 8.66693 25.2C8.20721 25.2 7.76632 25.0104 7.44125 24.6728C7.11617 24.3352 6.93355 23.8774 6.93355 23.4C6.93355 22.9226 7.11617 22.4648 7.44125 22.1272C7.76632 21.7896 8.20721 21.6 8.66693 21.6ZM20.8006 21.6C21.2604 21.6 21.7013 21.7896 22.0263 22.1272C22.3514 22.4648 22.534 22.9226 22.534 23.4C22.534 23.8774 22.3514 24.3352 22.0263 24.6728C21.7013 25.0104 21.2604 25.2 20.8006 25.2C20.3409 25.2 19.9 25.0104 19.575 24.6728C19.2499 24.3352 19.0673 23.8774 19.0673 23.4C19.0673 22.9226 19.2499 22.4648 19.575 22.1272C19.9 21.7896 20.3409 21.6 20.8006 21.6Z" fill="black"/>
<path d="M0 0.9C0 0.661305 0.0913121 0.432387 0.253849 0.263604C0.416385 0.0948211 0.636832 0 0.866693 0H3.46677C3.6601 5.54607e-05 3.84786 0.0672312 4.00019 0.190845C4.15252 0.314458 4.26068 0.487411 4.30747 0.6822L5.00949 3.6H25.1341C25.2614 3.60012 25.387 3.62934 25.5022 3.68559C25.6174 3.74184 25.7192 3.82373 25.8004 3.92545C25.8817 4.02716 25.9403 4.14621 25.9723 4.27413C26.0042 4.40205 26.0086 4.53571 25.9852 4.6656L23.3851 19.0656C23.3479 19.2718 23.2425 19.4581 23.0871 19.5922C22.9317 19.7263 22.7361 19.7998 22.534 19.8H6.93355C6.73149 19.7998 6.53585 19.7263 6.38044 19.5922C6.22504 19.4581 6.11963 19.2718 6.08245 19.0656L3.48411 4.6926L2.79075 1.8H0.866693C0.636832 1.8 0.416385 1.70518 0.253849 1.5364C0.0913121 1.36761 0 1.13869 0 0.9ZM5.37697 5.4L7.6529 18H21.8147L24.0906 5.4H5.37697ZM8.66693 19.8C7.74749 19.8 6.8657 20.1793 6.21556 20.8544C5.56541 21.5295 5.20016 22.4452 5.20016 23.4C5.20016 24.3548 5.56541 25.2705 6.21556 25.9456C6.8657 26.6207 7.74749 27 8.66693 27C9.58638 27 10.4682 26.6207 11.1183 25.9456C11.7685 25.2705 12.1337 24.3548 12.1337 23.4C12.1337 22.4452 11.7685 21.5295 11.1183 20.8544C10.4682 20.1793 9.58638 19.8 8.66693 19.8ZM20.8006 19.8C19.8812 19.8 18.9994 20.1793 18.3493 20.8544C17.6991 21.5295 17.3339 22.4452 17.3339 23.4C17.3339 24.3548 17.6991 25.2705 18.3493 25.9456C18.9994 26.6207 19.8812 27 20.8006 27C21.7201 27 22.6019 26.6207 23.252 25.9456C23.9022 25.2705 24.2674 24.3548 24.2674 23.4C24.2674 22.4452 23.9022 21.5295 23.252 20.8544C22.6019 20.1793 21.7201 19.8 20.8006 19.8ZM8.66693 21.6C9.12666 21.6 9.56755 21.7896 9.89262 22.1272C10.2177 22.4648 10.4003 22.9226 10.4003 23.4C10.4003 23.8774 10.2177 24.3352 9.89262 24.6728C9.56755 25.0104 9.12666 25.2 8.66693 25.2C8.20721 25.2 7.76632 25.0104 7.44125 24.6728C7.11617 24.3352 6.93355 23.8774 6.93355 23.4C6.93355 22.9226 7.11617 22.4648 7.44125 22.1272C7.76632 21.7896 8.20721 21.6 8.66693 21.6ZM20.8006 21.6C21.2604 21.6 21.7013 21.7896 22.0263 22.1272C22.3514 22.4648 22.534 22.9226 22.534 23.4C22.534 23.8774 22.3514 24.3352 22.0263 24.6728C21.7013 25.0104 21.2604 25.2 20.8006 25.2C20.3409 25.2 19.9 25.0104 19.575 24.6728C19.2499 24.3352 19.0673 23.8774 19.0673 23.4C19.0673 22.9226 19.2499 22.4648 19.575 22.1272C19.9 21.7896 20.3409 21.6 20.8006 21.6Z" fill="#2A59FE" fill-opacity="0.3"/>
<path d="M0 0.9C0 0.661305 0.0913121 0.432387 0.253849 0.263604C0.416385 0.0948211 0.636832 0 0.866693 0H3.46677C3.6601 5.54607e-05 3.84786 0.0672312 4.00019 0.190845C4.15252 0.314458 4.26068 0.487411 4.30747 0.6822L5.00949 3.6H25.1341C25.2614 3.60012 25.387 3.62934 25.5022 3.68559C25.6174 3.74184 25.7192 3.82373 25.8004 3.92545C25.8817 4.02716 25.9403 4.14621 25.9723 4.27413C26.0042 4.40205 26.0086 4.53571 25.9852 4.6656L23.3851 19.0656C23.3479 19.2718 23.2425 19.4581 23.0871 19.5922C22.9317 19.7263 22.7361 19.7998 22.534 19.8H6.93355C6.73149 19.7998 6.53585 19.7263 6.38044 19.5922C6.22504 19.4581 6.11963 19.2718 6.08245 19.0656L3.48411 4.6926L2.79075 1.8H0.866693C0.636832 1.8 0.416385 1.70518 0.253849 1.5364C0.0913121 1.36761 0 1.13869 0 0.9ZM5.37697 5.4L7.6529 18H21.8147L24.0906 5.4H5.37697ZM8.66693 19.8C7.74749 19.8 6.8657 20.1793 6.21556 20.8544C5.56541 21.5295 5.20016 22.4452 5.20016 23.4C5.20016 24.3548 5.56541 25.2705 6.21556 25.9456C6.8657 26.6207 7.74749 27 8.66693 27C9.58638 27 10.4682 26.6207 11.1183 25.9456C11.7685 25.2705 12.1337 24.3548 12.1337 23.4C12.1337 22.4452 11.7685 21.5295 11.1183 20.8544C10.4682 20.1793 9.58638 19.8 8.66693 19.8ZM20.8006 19.8C19.8812 19.8 18.9994 20.1793 18.3493 20.8544C17.6991 21.5295 17.3339 22.4452 17.3339 23.4C17.3339 24.3548 17.6991 25.2705 18.3493 25.9456C18.9994 26.6207 19.8812 27 20.8006 27C21.7201 27 22.6019 26.6207 23.252 25.9456C23.9022 25.2705 24.2674 24.3548 24.2674 23.4C24.2674 22.4452 23.9022 21.5295 23.252 20.8544C22.6019 20.1793 21.7201 19.8 20.8006 19.8ZM8.66693 21.6C9.12666 21.6 9.56755 21.7896 9.89262 22.1272C10.2177 22.4648 10.4003 22.9226 10.4003 23.4C10.4003 23.8774 10.2177 24.3352 9.89262 24.6728C9.56755 25.0104 9.12666 25.2 8.66693 25.2C8.20721 25.2 7.76632 25.0104 7.44125 24.6728C7.11617 24.3352 6.93355 23.8774 6.93355 23.4C6.93355 22.9226 7.11617 22.4648 7.44125 22.1272C7.76632 21.7896 8.20721 21.6 8.66693 21.6ZM20.8006 21.6C21.2604 21.6 21.7013 21.7896 22.0263 22.1272C22.3514 22.4648 22.534 22.9226 22.534 23.4C22.534 23.8774 22.3514 24.3352 22.0263 24.6728C21.7013 25.0104 21.2604 25.2 20.8006 25.2C20.3409 25.2 19.9 25.0104 19.575 24.6728C19.2499 24.3352 19.0673 23.8774 19.0673 23.4C19.0673 22.9226 19.2499 22.4648 19.575 22.1272C19.9 21.7896 20.3409 21.6 20.8006 21.6Z" fill="white" fill-opacity="0.5" />
</svg>
