<svg  viewBox="0 0 132 19" fill="none" xmlns="http://www.w3.org/2000/svg">
<path d="M-0.0079999 18V1.2H3.208L10.36 13.056H8.656L15.688 1.2H18.88L18.928 18H15.28L15.256 6.792H15.928L10.312 16.224H8.56L2.824 6.792H3.64V18H-0.0079999ZM28.8939 18.192C27.5179 18.192 26.2939 17.904 25.2219 17.328C24.1659 16.752 23.3259 15.968 22.7019 14.976C22.0939 13.968 21.7899 12.824 21.7899 11.544C21.7899 10.248 22.0939 9.104 22.7019 8.112C23.3259 7.104 24.1659 6.32 25.2219 5.76C26.2939 5.184 27.5179 4.896 28.8939 4.896C30.2539 4.896 31.4699 5.184 32.5419 5.76C33.6139 6.32 34.4539 7.096 35.0619 8.088C35.6699 9.08 35.9739 10.232 35.9739 11.544C35.9739 12.824 35.6699 13.968 35.0619 14.976C34.4539 15.968 33.6139 16.752 32.5419 17.328C31.4699 17.904 30.2539 18.192 28.8939 18.192ZM28.8939 15.12C29.5179 15.12 30.0779 14.976 30.5739 14.688C31.0699 14.4 31.4619 13.992 31.7499 13.464C32.0379 12.92 32.1819 12.28 32.1819 11.544C32.1819 10.792 32.0379 10.152 31.7499 9.624C31.4619 9.096 31.0699 8.688 30.5739 8.4C30.0779 8.112 29.5179 7.968 28.8939 7.968C28.2699 7.968 27.7099 8.112 27.2139 8.4C26.7179 8.688 26.3179 9.096 26.0139 9.624C25.7259 10.152 25.5819 10.792 25.5819 11.544C25.5819 12.28 25.7259 12.92 26.0139 13.464C26.3179 13.992 26.7179 14.4 27.2139 14.688C27.7099 14.976 28.2699 15.12 28.8939 15.12ZM44.1204 18.192C42.9044 18.192 41.8084 17.92 40.8324 17.376C39.8564 16.816 39.0804 16.04 38.5044 15.048C37.9444 14.056 37.6644 12.888 37.6644 11.544C37.6644 10.184 37.9444 9.008 38.5044 8.016C39.0804 7.024 39.8564 6.256 40.8324 5.712C41.8084 5.168 42.9044 4.896 44.1204 4.896C45.2084 4.896 46.1604 5.136 46.9764 5.616C47.7924 6.096 48.4244 6.824 48.8724 7.8C49.3204 8.776 49.5444 10.024 49.5444 11.544C49.5444 13.048 49.3284 14.296 48.8964 15.288C48.4644 16.264 47.8404 16.992 47.0244 17.472C46.2244 17.952 45.2564 18.192 44.1204 18.192ZM44.7684 15.12C45.3764 15.12 45.9284 14.976 46.4244 14.688C46.9204 14.4 47.3124 13.992 47.6004 13.464C47.9044 12.92 48.0564 12.28 48.0564 11.544C48.0564 10.792 47.9044 10.152 47.6004 9.624C47.3124 9.096 46.9204 8.688 46.4244 8.4C45.9284 8.112 45.3764 7.968 44.7684 7.968C44.1444 7.968 43.5844 8.112 43.0884 8.4C42.5924 8.688 42.1924 9.096 41.8884 9.624C41.6004 10.152 41.4564 10.792 41.4564 11.544C41.4564 12.28 41.6004 12.92 41.8884 13.464C42.1924 13.992 42.5924 14.4 43.0884 14.688C43.5844 14.976 44.1444 15.12 44.7684 15.12ZM48.1524 18V15.36L48.2244 11.52L47.9844 7.704V0.191999H51.7284V18H48.1524ZM63.2136 18V15.48L62.9736 14.928V10.416C62.9736 9.616 62.7256 8.992 62.2296 8.544C61.7496 8.096 61.0056 7.872 59.9976 7.872C59.3096 7.872 58.6296 7.984 57.9576 8.208C57.3016 8.416 56.7416 8.704 56.2776 9.072L54.9336 6.456C55.6376 5.96 56.4856 5.576 57.4776 5.304C58.4696 5.032 59.4776 4.896 60.5016 4.896C62.4696 4.896 63.9976 5.36 65.0856 6.288C66.1736 7.216 66.7176 8.664 66.7176 10.632V18H63.2136ZM59.2776 18.192C58.2696 18.192 57.4056 18.024 56.6856 17.688C55.9656 17.336 55.4136 16.864 55.0296 16.272C54.6456 15.68 54.4536 15.016 54.4536 14.28C54.4536 13.512 54.6376 12.84 55.0056 12.264C55.3896 11.688 55.9896 11.24 56.8056 10.92C57.6216 10.584 58.6856 10.416 59.9976 10.416H63.4296V12.6H60.4056C59.5256 12.6 58.9176 12.744 58.5816 13.032C58.2616 13.32 58.1016 13.68 58.1016 14.112C58.1016 14.592 58.2856 14.976 58.6536 15.264C59.0376 15.536 59.5576 15.672 60.2136 15.672C60.8376 15.672 61.3976 15.528 61.8936 15.24C62.3896 14.936 62.7496 14.496 62.9736 13.92L63.5496 15.648C63.2776 16.48 62.7816 17.112 62.0616 17.544C61.3416 17.976 60.4136 18.192 59.2776 18.192ZM73.3021 15.36L73.3981 10.8L79.4221 5.088H83.8861L78.1021 10.968L76.1581 12.552L73.3021 15.36ZM70.2061 18V0.191999H73.9501V18H70.2061ZM79.8301 18L75.4621 12.576L77.8141 9.672L84.3661 18H79.8301ZM92.0188 18.192C90.5468 18.192 89.2508 17.904 88.1308 17.328C87.0268 16.752 86.1708 15.968 85.5628 14.976C84.9548 13.968 84.6508 12.824 84.6508 11.544C84.6508 10.248 84.9468 9.104 85.5388 8.112C86.1468 7.104 86.9708 6.32 88.0108 5.76C89.0508 5.184 90.2268 4.896 91.5388 4.896C92.8028 4.896 93.9388 5.168 94.9468 5.712C95.9708 6.24 96.7788 7.008 97.3708 8.016C97.9628 9.008 98.2588 10.2 98.2588 11.592C98.2588 11.736 98.2508 11.904 98.2348 12.096C98.2188 12.272 98.2028 12.44 98.1868 12.6H87.6988V10.416H96.2188L94.7788 11.064C94.7788 10.392 94.6428 9.808 94.3708 9.312C94.0988 8.816 93.7228 8.432 93.2428 8.16C92.7628 7.872 92.2028 7.728 91.5628 7.728C90.9228 7.728 90.3548 7.872 89.8588 8.16C89.3788 8.432 89.0028 8.824 88.7308 9.336C88.4588 9.832 88.3228 10.424 88.3228 11.112V11.688C88.3228 12.392 88.4748 13.016 88.7788 13.56C89.0988 14.088 89.5388 14.496 90.0988 14.784C90.6748 15.056 91.3468 15.192 92.1148 15.192C92.8028 15.192 93.4028 15.088 93.9148 14.88C94.4428 14.672 94.9228 14.36 95.3548 13.944L97.3468 16.104C96.7548 16.776 96.0108 17.296 95.1148 17.664C94.2188 18.016 93.1868 18.192 92.0188 18.192ZM100.851 18V0.191999H104.595V18H100.851ZM116.09 18V15.48L115.85 14.928V10.416C115.85 9.616 115.602 8.992 115.106 8.544C114.626 8.096 113.882 7.872 112.874 7.872C112.186 7.872 111.506 7.984 110.834 8.208C110.178 8.416 109.618 8.704 109.154 9.072L107.81 6.456C108.514 5.96 109.362 5.576 110.354 5.304C111.346 5.032 112.354 4.896 113.378 4.896C115.346 4.896 116.874 5.36 117.962 6.288C119.05 7.216 119.594 8.664 119.594 10.632V18H116.09ZM112.154 18.192C111.146 18.192 110.282 18.024 109.562 17.688C108.842 17.336 108.29 16.864 107.906 16.272C107.522 15.68 107.33 15.016 107.33 14.28C107.33 13.512 107.514 12.84 107.882 12.264C108.266 11.688 108.866 11.24 109.682 10.92C110.498 10.584 111.562 10.416 112.874 10.416H116.306V12.6H113.282C112.402 12.6 111.794 12.744 111.458 13.032C111.138 13.32 110.978 13.68 110.978 14.112C110.978 14.592 111.162 14.976 111.53 15.264C111.914 15.536 112.434 15.672 113.09 15.672C113.714 15.672 114.274 15.528 114.77 15.24C115.266 14.936 115.626 14.496 115.85 13.92L116.426 15.648C116.154 16.48 115.658 17.112 114.938 17.544C114.218 17.976 113.29 18.192 112.154 18.192ZM123.083 18V5.088H126.659V8.736L126.155 7.68C126.539 6.768 127.155 6.08 128.003 5.616C128.851 5.136 129.883 4.896 131.099 4.896V8.352C130.939 8.336 130.795 8.328 130.667 8.328C130.539 8.312 130.403 8.304 130.259 8.304C129.235 8.304 128.403 8.6 127.763 9.192C127.139 9.768 126.827 10.672 126.827 11.904V18H123.083Z" fill="#252B42"/>
</svg>
